<svg xmlns:dc="http://purl.org/dc/elements/1.1/" xmlns:cc="http://creativecommons.org/ns#" xmlns:rdf="http://www.w3.org/1999/02/22-rdf-syntax-ns#" xmlns:svg="http://www.w3.org/2000/svg" xmlns="http://www.w3.org/2000/svg" xmlns:sodipodi="http://sodipodi.sourceforge.net/DTD/sodipodi-0.dtd" xmlns:inkscape="http://www.inkscape.org/namespaces/inkscape" width="41.07" height="48.46" viewBox="0 0 145.53 171.71" id="svg2" version="1.1" inkscape:version="0.91" sodipodi:docname="a1labarts_logo.svg">
  <defs id="defs4"/>
  <sodipodi:namedview id="base" pagecolor="#ffffff" bordercolor="#666666" borderopacity="1" inkscape:pageopacity="0" inkscape:pageshadow="2" inkscape:zoom="0.99" inkscape:cx="498.04" inkscape:cy="-72.53" inkscape:document-units="px" inkscape:current-layer="layer1" showgrid="false" fit-margin-top="0" fit-margin-left="0" fit-margin-right="0" fit-margin-bottom="0" borderlayer="false" inkscape:showpageshadow="false" showborder="false" inkscape:window-width="1440" inkscape:window-height="807" inkscape:window-x="0" inkscape:window-y="1" inkscape:window-maximized="1"/>
  <metadata id="metadata7">
    <rdf:RDF>
      <cc:Work rdf:about="">
        <dc:format>
          image/svg+xml
        </dc:format>
        <dc:type rdf:resource="http://purl.org/dc/dcmitype/StillImage"/>
      </cc:Work>
    </rdf:RDF>
  </metadata>
  <g inkscape:label="Layer 1" inkscape:groupmode="layer" id="layer1" transform="translate(-6.1238902,-5.2786489)">
    <g id="g3401" transform="translate(-18.425734,-15.71727)">
      <path d="m25.02 192.28c-0.56-0.56-0.63-2.55-0.11-3.07 0.52-0.52 141.86-0.52 142.38 0 0.43 0.43 0.47 2.3 0.07 2.94-0.25 0.4-8.53 0.46-71.07 0.53-64.14 0.07-70.83 0.03-71.26-0.4zm1.93-5.78c0-0.38 0.32-0.65 0.98-0.84l0.98-0.28 0.08-6.44c0.05-3.54 0.01-6.73-0.07-7.09-0.1-0.41-0.55-0.78-1.23-1-0.73-0.24-1.04-0.51-0.97-0.85 0.08-0.43 0.69-0.51 4.57-0.58 3.38-0.06 4.53 0.01 4.72 0.3 0.13 0.21 0.25 3.51 0.25 7.34 0 3.83 0.13 7.28 0.28 7.68 0.18 0.48 0.6 0.79 1.22 0.92 0.69 0.14 0.92 0.33 0.84 0.72-0.09 0.48-0.64 0.54-5.87 0.61-5.47 0.08-5.77 0.05-5.77-0.48zm15.49 0.26c-2.15-0.69-3.01-2.89-1.66-4.24 1.06-1.06 3.55-2.01 7.02-2.67 1.82-0.35 3.61-0.7 3.99-0.78 0.61-0.13 0.68-0.29 0.6-1.4-0.11-1.55-0.86-2.01-3.24-2.01-2.13 0-2.73 0.33-2.01 1.12 0.71 0.79 0.64 1.78-0.16 2.28-1.74 1.09-4.92 0.79-5.8-0.56-0.65-0.99-0.07-2.16 1.51-3.05 2.99-1.68 11.72-1.8 15.06-0.21 1.71 0.81 1.99 1.53 2.18 5.61 0.17 3.62 0.18 3.65 0.89 3.57 0.39-0.04 0.89 0.07 1.11 0.25 1.19 0.99-1.61 2.23-5.02 2.23-1.93 0-2.45-0.11-3.24-0.69l-0.94-0.69-1.71 0.66c-1.91 0.73-7.04 1.08-8.58 0.59zm9.64-2.89c0.68-0.44 0.82-1.18 0.48-2.47-0.17-0.62-0.31-0.68-1.27-0.5-1.83 0.34-3.48 1.41-3.48 2.25 0 1.44 2.51 1.86 4.28 0.72zm14.08 2.68c-0.11-0.11-0.2-2.84-0.2-6.07 0-3.23-0.09-6.79-0.19-7.92-0.18-1.94-0.23-2.05-1.04-2.21-0.96-0.19-1.61-0.82-1.32-1.28 0.29-0.46 8.93-0.42 9.4 0.05 0.23 0.23 0.36 1.35 0.36 3.03 0 2.35 0.06 2.65 0.49 2.48 1.58-0.61 3.44-0.83 5.9-0.73 2.29 0.1 3.1 0.27 4.5 0.96 5.09 2.49 4.81 8.14-0.52 10.56-3.17 1.44-8.15 1.69-11.49 0.56-1.53-0.51-1.61-0.51-3.25 0.12-1.78 0.68-2.3 0.77-2.63 0.44zm12.38-1.96c1.43-0.9 2.02-4.47 1.1-6.68-0.75-1.8-3.56-2.55-5.59-1.5l-0.89 0.46 0 3.55c0 3.69 0.13 4.09 1.5 4.64 0.68 0.28 3.17-0.02 3.88-0.46zm14.67 1.89c-2.39-0.5-3.63-2-2.91-3.52 0.65-1.36 3.22-2.45 7.97-3.38l4.14-0.81 0.09-1.04c0.12-1.39-0.44-2.06-2.02-2.42-1.4-0.32-3.81-0.09-4.11 0.39-0.1 0.16 0.14 0.62 0.52 1.03 0.55 0.58 0.63 0.85 0.38 1.25-0.57 0.91-1.68 1.29-3.47 1.18-3.69-0.23-3.97-2.79-0.48-4.25 0.6-0.25 2.36-0.6 3.9-0.78 4.71-0.54 9.54 0.16 11.26 1.64 0.82 0.7 0.84 0.81 0.99 4.57l0.15 3.85 1.03 0.15c1.41 0.21 1.45 0.68 0.1 1.34-2.16 1.05-6.03 0.96-7.62-0.19-0.39-0.28-0.96-0.22-2.7 0.29-2.52 0.74-5.59 1.03-7.21 0.69zm8.89-2.73c0.35-0.29 0.46-0.81 0.39-1.93l-0.09-1.53-1.05 0.09c-0.58 0.05-1.66 0.39-2.4 0.77-1.07 0.53-1.37 0.86-1.45 1.54-0.14 1.25 0.63 1.73 2.56 1.57 0.86-0.07 1.77-0.3 2.04-0.52zm12.38 2.23c-0.47-0.48-0.19-0.92 0.75-1.2l0.98-0.29 0-4.35 0-4.35-1.12-0.55c-0.62-0.3-1.12-0.65-1.12-0.78 0-0.28 7.89-0.69 8.53-0.44 0.26 0.1 0.47 0.36 0.47 0.58 0 0.75 0.53 0.73 2.29-0.08 2.34-1.07 5.61-1.17 6.91-0.21 1.26 0.94 1.17 2.2-0.2 2.89-1.44 0.72-2.66 0.66-4.32-0.22-1.58-0.84-1.94-0.89-2.98-0.42-1.06 0.48-1.4 1.49-1.4 4.16 0 3.3 0.25 3.82 1.93 4.07 0.87 0.13 1.37 0.36 1.37 0.62 0 0.33-0.79 0.42-3.97 0.42-2.19 0-4.85 0.08-5.92 0.18-1.07 0.1-2.05 0.08-2.17-0.05zm36.4-0.26c-0.21-0.25-0.32-1.14-0.26-2.17 0.08-1.58 0.16-1.76 0.8-1.85 0.52-0.07 0.95 0.19 1.58 0.95 1.24 1.5 3 2.09 5.82 1.95 1.84-0.09 2.38-0.23 2.72-0.7 0.69-0.94-0.24-1.52-4.08-2.55-4.27-1.15-5.88-1.91-6.46-3.03-1.61-3.11 3.33-5.48 9.82-4.72 1.85 0.22 2.9 0.22 3.37 0.01 0.37-0.17 0.84-0.21 1.05-0.08 0.53 0.32 0.76 2.51 0.35 3.27-0.46 0.85-0.96 0.81-1.85-0.15-1.1-1.2-2.89-1.9-4.87-1.9-2.01-0.01-2.91 0.36-2.91 1.21 0 0.72 0.55 0.96 4.86 2.1 3.63 0.97 4.79 1.48 5.47 2.45 1.2 1.71-0.22 4.08-2.91 4.88-1.68 0.5-6.42 0.59-8.62 0.17-0.98-0.19-1.62-0.15-2.36 0.16-1.23 0.51-1.09 0.51-1.52 0zm-11.9-0.43c-0.68-0.32-1.33-0.83-1.46-1.14-0.13-0.31-0.3-2.42-0.39-4.69l-0.16-4.12-0.82 0c-0.45 0-0.97-0.18-1.16-0.41-0.43-0.51-0.19-0.71 2.24-1.93 1-0.5 2.44-1.38 3.19-1.95 2.94-2.25 3.47-2.17 3.6 0.5l0.09 1.85 2 0.15c2.17 0.16 2.52 0.33 2.25 1.04-0.13 0.34-0.63 0.46-1.95 0.46-2.5 0-2.57 0.14-2.31 4.43 0.12 1.94 0.36 3.69 0.53 3.9 0.46 0.56 1.75 0.45 2.87-0.23 1.74-1.06 2.6-0.47 1.19 0.81-1.42 1.3-2.68 1.7-5.62 1.81-2.33 0.08-3.07 0-4.08-0.47zM24.85 165.77c-0.41-0.76-0.41-8.88 0-9.64 0.49-0.91 1.11-0.69 1.98 0.69 2.03 3.23 4.46 5.39 8.11 7.23 1.18 0.6 2.23 1.21 2.33 1.38 0.43 0.69-1.22 0.92-6.56 0.92-5.19 0-5.58-0.04-5.87-0.58zm46.99 0.38c-0.53-0.53-0.03-1.07 1.77-1.89 7.39-3.35 14.32-10.86 17.4-18.87 0.91-2.37 1.27-2.7 2.37-2.2 0.55 0.25 0.78 0.71 1.06 2.06 0.74 3.7 2.45 7.65 4.66 10.76 2.82 3.97 7.25 7.02 11.99 8.23 1.25 0.32 2.4 0.66 2.56 0.76 0.52 0.32 0.3 0.97-0.39 1.15-0.93 0.25-41.18 0.24-41.42-0.01zm57.7-0.05c-0.43-0.14-0.37-0.82 0.1-1.21 0.22-0.18 1.26-0.55 2.31-0.82 2.71-0.69 7.33-3.15 10.09-5.37 6.58-5.28 11.38-14.73 12.47-24.55 0.31-2.79 0.3-3.28-0.08-3.52-0.24-0.15-5.02-0.28-10.86-0.28l-10.42 0-0.12 0.68c-0.07 0.37-0.34 2.02-0.6 3.66-0.53 3.35-1.85 6.46-3.08 7.27-0.72 0.47-0.78 0.46-1.52-0.29-1.47-1.47-2.39-5.36-2.63-11.17-0.08-1.98-0.21-19.73-0.29-39.45-0.13-34.48-0.16-35.96-0.74-38.7-0.81-3.84-1.09-4.8-2.32-7.94-2.03-5.18-4.31-8.61-8.63-12.95-3.6-3.62-6.93-5.98-11.19-7.94-2.3-1.06-3.15-1.8-2.66-2.29 0.36-0.36 69.83-0.1 70.28 0.26 0.56 0.47 0.6 144.1 0.04 144.45-0.34 0.21-39.51 0.37-40.14 0.16zM64.74 140.89c-0.91-0.29-1.99-0.7-2.4-0.92-0.92-0.48-4.5-3.94-4.51-4.36 0-0.17-0.4-0.89-0.88-1.6-2.3-3.39-2.42-12.09-0.23-16.59 0.98-2.01 3.67-4.93 5.77-6.25 3.08-1.95 7.17-3.87 14.76-6.95 7-2.84 9.62-4.18 11.72-6.01 1.04-0.91 1.98-1.1 2.36-0.49 0.13 0.2 0.19 3.68 0.15 7.73-0.08 7.2-0.68 13.26-1.59 16.2-1.28 4.12-2.92 7.6-4.92 10.39-2.06 2.88-5.92 6.32-8.46 7.51-3.93 1.86-8.52 2.38-11.78 1.33zM24.91 101.92c-0.14-0.29-0.22-8.21-0.18-17.59 0.07-17.34 0.1-17.8 1.14-17.4 0.18 0.07 0.7 0.71 1.15 1.43 0.45 0.72 1.53 1.97 2.4 2.79 3.05 2.89 6.22 4.23 10.59 4.51 7.66 0.48 14.1-3.15 17.15-9.67 0.79-1.69 0.83-2 0.8-5.85l-0.03-4.06-1.27-2.39c-0.7-1.31-2-3.14-2.89-4.05-1.65-1.69-2.06-2.86-1.24-3.52 0.4-0.32 3.15-0.98 6.83-1.62 3.08-0.54 14.53-0.53 16.95 0.01 3.03 0.68 6.66 2.64 8.7 4.69 1.85 1.86 4.25 5.95 4.93 8.4 0.55 1.97 0.9 7.05 0.63 9.2-0.56 4.51-3.56 8.44-8.14 10.67-2.68 1.3-3.76 1.63-10.17 3.09-6.55 1.5-7.68 1.79-13.2 3.47-11.23 3.41-19.35 6.91-25.33 10.93-2.07 1.39-5.5 4.53-7.12 6.52-0.9 1.1-1.31 1.21-1.68 0.45zm-0.08-64.05c-0.01-0.04-0.08-3.58-0.16-7.87-0.12-6.22-0.07-7.91 0.25-8.35 0.37-0.51 1.11-0.55 10.06-0.63 7.45-0.07 9.73 0 9.97 0.29 0.45 0.54-0.3 1.18-2.26 1.91-4.95 1.85-9.66 5.19-13.05 9.25-1.24 1.48-2.62 3.32-3.07 4.09-0.45 0.77-1.02 1.39-1.27 1.39-0.25 0-0.47-0.03-0.47-0.07z" id="path3415" inkscape:connector-curvature="0" fill="#df9e9e"/>
      <path d="m24.85 191.87c-0.45-0.85-0.38-2.01 0.16-2.55 0.43-0.43 7.28-0.47 70.95-0.47 70.08 0 70.48 0 71.08 0.6 0.66 0.66 0.77 1.53 0.29 2.42-0.31 0.57-1.42 0.58-71.24 0.58-69.82 0-70.93-0.01-71.24-0.58zm2.29-5.02c-0.41-0.41-0.17-0.74 0.85-1.17l1.05-0.44 0-6.62c0-6.79-0.15-7.78-1.17-7.78-0.3 0-0.73-0.21-0.95-0.47-0.33-0.39-0.32-0.52 0.04-0.75 0.67-0.42 8.49-0.35 8.92 0.08 0.26 0.26 0.36 2.34 0.36 7.48 0 3.91 0.08 7.33 0.19 7.6 0.1 0.27 0.66 0.68 1.24 0.92 0.88 0.37 0.99 0.51 0.68 0.89-0.31 0.37-1.33 0.45-5.69 0.45-2.92 0-5.4-0.09-5.51-0.2zm15.25-0.23c-2.45-0.91-2.97-2.77-1.21-4.32 1.22-1.07 3.89-1.96 7.95-2.66 1.57-0.27 3.03-0.62 3.24-0.79 0.53-0.41 0.18-2.01-0.6-2.68-0.45-0.39-1.14-0.52-2.66-0.52-2.19 0-2.73 0.32-1.96 1.17 1.32 1.46-0.09 2.73-3.04 2.73-2.15 0-3.08-0.56-3.08-1.83 0-2.35 2.95-3.42 9.45-3.42 4.93 0 6.88 0.42 8.37 1.8 0.71 0.66 0.78 0.93 0.78 3.06 0 1.29 0.09 3.06 0.19 3.93 0.17 1.38 0.28 1.58 0.82 1.54 1.92-0.15 1.89 0.72-0.04 1.59-2.07 0.93-5.56 0.93-6.89-0.01l-0.95-0.68-1.89 0.65c-2.46 0.84-6.8 1.07-8.49 0.44zm9.76-2.57c0.46-0.25 0.59-0.63 0.59-1.8 0-1.37-0.06-1.49-0.71-1.49-0.97 0-3.19 0.81-3.85 1.4-1.32 1.2-0.04 2.65 2.1 2.37 0.71-0.09 1.55-0.31 1.87-0.48zm14.16 2.36c-0.28-0.28-0.37-2.24-0.37-7.68 0-4.12-0.13-7.55-0.29-7.85-0.16-0.3-0.71-0.62-1.22-0.73-0.68-0.14-0.91-0.33-0.83-0.71 0.09-0.47 0.57-0.54 4.42-0.61 2.38-0.05 4.44 0.04 4.59 0.18 0.15 0.15 0.35 1.5 0.44 3.01 0.1 1.51 0.24 2.74 0.31 2.74 0.07 0 0.88-0.22 1.8-0.48 2.32-0.67 6.3-0.46 8.33 0.45 2.72 1.22 4.05 2.95 4.05 5.29 0 0.76-0.19 1.74-0.42 2.19-1.96 3.76-9.29 5.58-15.09 3.75-1.53-0.48-1.69-0.48-3.02 0.03-2.12 0.81-2.28 0.84-2.69 0.43zm11.76-1.58c1.39-0.58 1.96-1.81 1.96-4.22 0-2.14-0.48-3.42-1.57-4.18-0.89-0.62-3.78-0.62-4.67 0-0.62 0.44-0.67 0.69-0.66 3.98 0 1.93 0.1 3.65 0.23 3.83 0.71 1.04 2.96 1.33 4.71 0.6zm14.56 1c-0.58-0.17-1.29-0.59-1.57-0.93-1.48-1.74 0.36-3.25 5.36-4.41 3.42-0.8 4.25-0.81 2.69-0.03-1.67 0.84-2.28 1.47-2.28 2.39 0 1.12 0.98 1.89 2.64 2.1l1.41 0.18-1.2 0.37c-1.66 0.51-5.78 0.7-7.05 0.33zm10.83-0.75c-0.74-0.62-0.86-0.88-0.62-1.33 0.4-0.75 0.38-3.39-0.03-3.8-0.24-0.24-0.23-0.51 0.03-1 0.41-0.76 0.21-2.52-0.35-3.2-0.21-0.25-0.72-0.6-1.14-0.78-0.76-0.32-0.76-0.32-0.08-0.44 1.11-0.19 4.83 0.49 6.06 1.12 0.63 0.32 1.22 0.8 1.33 1.07 0.1 0.27 0.19 2 0.19 3.86 0 3.39 0.2 4.13 1.2 4.46 0.92 0.3-1.25 0.82-3.45 0.82-1.94 0-2.32-0.1-3.13-0.77zm12.57 0.3c0-0.09 0.2-0.37 0.45-0.62 0.65-0.65 0.65-8.42 0.01-9.27-0.24-0.32-0.44-0.69-0.45-0.82 0-0.13 1.44-0.2 3.21-0.15 2.95 0.08 3.23 0.14 3.33 0.69 0.19 1.09 0.56 1.11 2.27 0.14 1.23-0.69 2.21-1 3.56-1.11 3.25-0.26 5.27 1.18 3.45 2.45-1.02 0.72-2.84 0.58-4.38-0.32-1.14-0.67-1.52-0.75-2.4-0.52-0.59 0.15-1.32 0.64-1.68 1.12-0.56 0.76-0.62 1.21-0.56 4.02 0.05 2.34 0.19 3.3 0.53 3.67 0.25 0.28 0.37 0.6 0.26 0.71-0.24 0.24-7.6 0.27-7.6 0.03zm24.71-0.11c-1.55-0.25-2.76-1.03-2.96-1.9-0.09-0.37-0.19-2.43-0.23-4.57l-0.07-3.9-1.05-0.16-1.05-0.16 1.8-0.93c0.99-0.51 2.64-1.55 3.68-2.31 1.03-0.76 2.01-1.38 2.17-1.38 0.16 0 0.3 0.68 0.3 1.52 0 2.4 0.27 2.68 2.61 2.68 2.43 0 2.23 0.39-0.31 0.6l-1.85 0.15-0.08 3.98c-0.05 2.31 0.05 4.22 0.22 4.55 0.49 0.92 1.94 1.07 3.38 0.36 0.69-0.34 1.3-0.57 1.36-0.5 0.28 0.28-2.68 1.69-4.12 1.97-1.72 0.33-1.94 0.33-3.8 0.02zm10.39-1.35c0-0.9 0.11-1.7 0.25-1.79 0.14-0.09 0.65 0.26 1.13 0.77 0.48 0.51 1.28 1.18 1.77 1.49l0.9 0.56-1.41 0c-0.77 0-1.49 0.14-1.59 0.3-0.1 0.17-0.38 0.3-0.62 0.3-0.32 0-0.43-0.41-0.43-1.63zm10.13 0.74c1.22-0.74 1.31-1.82 0.21-2.53-0.42-0.27-2.31-0.89-4.2-1.37-3.68-0.94-4.41-1.23-5.47-2.19-1.31-1.2-0.72-2.64 1.52-3.68 0.85-0.4 2.02-0.72 2.6-0.71l1.05 0.01-0.82 0.45c-1.16 0.63-1.11 1.76 0.11 2.5 0.51 0.31 2.35 0.92 4.09 1.36 4.52 1.13 5.78 1.89 5.78 3.45 0 0.46-0.27 1.18-0.6 1.6-0.66 0.84-2.88 1.72-4.33 1.72l-0.92 0 0.98-0.59zm-69.35-6.4c-0.94-0.69-0.5-1.78 1.02-2.51 0.74-0.36 1.8-0.74 2.35-0.85 0.95-0.19 0.98-0.17 0.61 0.41-0.33 0.53-0.29 0.71 0.28 1.32 0.37 0.39 0.66 0.87 0.66 1.07 0 0.88-3.87 1.32-4.92 0.56zm71.8-2.19c-0.4-0.43-1.17-1.01-1.72-1.29l-0.99-0.51 1.59 0c0.88 0 1.8-0.06 2.04-0.13 0.35-0.1 0.47 0.19 0.54 1.29 0.11 1.67-0.33 1.86-1.46 0.65zM25.04 166.12c-0.09-0.14-0.19-2.45-0.23-5.14-0.05-3.8 0.02-4.94 0.33-5.13 0.6-0.37 0.98-0.11 1.7 1.13 1.61 2.81 5.17 5.87 8.58 7.37 1.03 0.46 1.73 0.95 1.73 1.23 0 0.26-0.1 0.48-0.22 0.49-2.2 0.19-11.77 0.24-11.88 0.05zm46.98 0.03c-0.83-0.33-0.27-0.94 1.77-1.92 7.52-3.62 13.68-10.18 16.94-18.03 1.26-3.05 1.63-3.47 2.61-3.03 0.55 0.25 0.79 0.78 1.2 2.67 1.12 5.17 3.69 9.86 7.3 13.33 2.58 2.48 5.13 3.91 8.95 5 3.13 0.9 3.84 1.54 2.1 1.91-1.06 0.23-40.32 0.29-40.87 0.06zm57.88-0.05c-1.31-0.18-0.62-1.06 1.29-1.67 8.59-2.7 14.75-7.79 18.73-15.5 2.93-5.66 5.04-13.24 4.77-17.09l-0.1-1.35-10.73-0.08c-8.44-0.06-10.76 0-10.84 0.3-0.06 0.21-0.27 1.53-0.47 2.93-0.46 3.29-1.06 5.2-2.17 6.98-1.88 3-3.43 1.36-4.76-5.03-0.28-1.36-0.42-11.41-0.56-41.25l-0.19-39.45-0.69-3c-1.79-7.82-4.47-13.32-9.14-18.77-3.15-3.68-8.93-8.03-12.64-9.52-0.99-0.4-2.04-0.93-2.33-1.19-0.61-0.54-0.69-1.27-0.15-1.28 0.21-0.01 15.9 0 34.87 0.01 31.91 0.01 34.53 0.05 34.88 0.52 0.53 0.71 0.44 143.66-0.1 144.1-0.32 0.27-37.91 0.59-39.67 0.34zM66.54 141.25c-3.66-0.65-7.29-3.1-8.8-5.95-2.18-4.11-2.75-6.57-2.44-10.63 0.77-10.25 4.41-13.56 22.8-20.71 5.48-2.13 8.3-3.53 9.95-4.93 1.53-1.3 2.35-1.71 2.96-1.48 0.46 0.18 0.49 0.92 0.36 8.32-0.16 9.28-0.87 14.88-2.31 18.33-2.28 5.45-3.8 7.77-7.49 11.43-3.94 3.91-6.83 5.23-12.32 5.61-1.07 0.07-2.29 0.08-2.7 0zM24.79 96.52c-0.07-3.09-0.07-10.93 0-17.42 0.11-10.35 0.19-11.82 0.6-11.98 0.3-0.12 0.69 0.12 1.09 0.67 2.84 3.91 5.61 6.05 9.47 7.36 1.65 0.56 6.9 0.74 9.06 0.32 5.26-1.03 9.62-4.29 11.99-8.97 1-1.98 1.01-2 0.99-6.19l-0.02-4.2-1.13-2.25c-0.71-1.42-1.8-2.93-2.93-4.08-1.49-1.51-1.79-1.98-1.7-2.69 0.08-0.72 0.33-0.94 1.53-1.36 4.63-1.65 17.36-2.23 22.81-1.04 3.05 0.67 5.76 2.14 8.19 4.44 1.72 1.63 2.39 2.55 3.53 4.86 1.95 3.96 2.38 6.03 2.24 10.83-0.11 3.8-0.14 3.95-1.2 6-2.15 4.15-5.91 6.89-11.49 8.37-0.99 0.26-3.62 0.89-5.85 1.39-16.18 3.66-29.5 8.62-37.95 14.13-1.32 0.86-3.71 2.89-5.31 4.51-1.6 1.62-3.11 2.95-3.34 2.95-0.35 0-0.45-1.04-0.55-5.63zm-0.07-66.02c-0.22-7.52-0.13-8.89 0.56-9.16 0.59-0.23 19.32-0.34 19.54-0.12 0.38 0.38-0.17 1.13-1.14 1.54-0.54 0.23-1.73 0.73-2.63 1.12-2.04 0.86-4.71 2.44-6.98 4.12-1.64 1.21-6.38 6.3-6.75 7.25-0.38 0.98-1.67 2.7-2.01 2.7-0.27 0-0.42-1.91-0.58-7.45z" id="path3413" inkscape:connector-curvature="0" fill="#a2a2a2"/>
      <path d="m25.14 191.54c-0.35-0.65-0.13-1.8 0.42-2.16 0.18-0.12 31.94-0.22 70.57-0.22 60.65 0 70.29 0.05 70.6 0.43 0.2 0.24 0.31 0.88 0.26 1.43l-0.1 0.99-70.71 0.08-70.71 0.08-0.33-0.61zm2.41-5.07c0-0.16 0.37-0.46 0.83-0.68l0.83-0.4 0.08-6.68c0.09-7.09-0.01-7.68-1.3-8.17-1.66-0.63-0.66-0.89 3.44-0.89 3.52 0 4.2 0.07 4.35 0.47 0.1 0.26 0.18 3.58 0.18 7.37 0 4.29 0.12 7.12 0.32 7.49 0.18 0.33 0.66 0.72 1.07 0.88 0.41 0.16 0.67 0.42 0.56 0.59-0.24 0.39-10.35 0.41-10.35 0.02zm14.85-0.15c-2.13-0.79-2.57-2.3-1.1-3.77 1-1 3.66-1.88 8.14-2.68 1.71-0.31 3.2-0.73 3.35-0.96 0.42-0.64-0.02-2.15-0.83-2.88-0.62-0.56-1.09-0.67-2.77-0.67-1.28 0-2.24 0.16-2.61 0.43-0.57 0.42-0.57 0.44 0.09 1.14 0.37 0.4 0.68 0.87 0.68 1.06 0 1.24-4.5 1.84-5.5 0.72-1.2-1.33 0.08-2.98 2.86-3.69 2.4-0.62 10.19-0.52 11.93 0.15 2.39 0.91 2.71 1.42 2.73 4.37 0.01 1.41 0.11 3.18 0.23 3.92 0.19 1.25 0.27 1.36 1.18 1.44 1.36 0.13 1.22 0.51-0.45 1.16-2.14 0.82-5.15 0.75-6.38-0.16l-0.96-0.71-1.99 0.67c-2.58 0.86-6.89 1.1-8.59 0.46zm9.97-2.14c0.62-0.41 0.7-0.66 0.62-2.02-0.08-1.36-0.18-1.57-0.77-1.65-1.02-0.15-3.49 0.77-4.25 1.58-0.84 0.89-0.72 1.97 0.28 2.5 0.91 0.48 3.11 0.27 4.12-0.4zm14.1 2.09c-0.12-0.12-0.22-3.54-0.22-7.6 0-7.88-0.12-8.55-1.51-8.77-0.34-0.05-0.64-0.23-0.67-0.4-0.04-0.19 1.55-0.33 4.17-0.38l4.23-0.08 0.19 1.13c0.1 0.62 0.19 1.98 0.19 3.01 0 2.1 0 2.1 2.23 1.42 3.03-0.92 7.52-0.4 9.8 1.13 2.19 1.47 3.06 4.35 1.96 6.46-1.84 3.53-9.14 5.23-14.79 3.45-1.53-0.48-1.69-0.48-3.02 0.03-2.02 0.77-2.3 0.84-2.54 0.6zm11.78-1.24c1.43-0.71 2.1-2.16 2.1-4.51 0-3.31-1.33-4.86-4.2-4.86-1.28 0-1.92 0.16-2.51 0.62-0.77 0.61-0.79 0.7-0.79 4.14 0 3.64 0.14 4.13 1.35 4.79 0.91 0.5 2.87 0.41 4.05-0.18zm14.4 0.8c-0.58-0.17-1.29-0.59-1.57-0.93-1.48-1.74 0.36-3.25 5.36-4.41 3.42-0.8 4.25-0.81 2.69-0.03-1.67 0.84-2.28 1.47-2.28 2.39 0 1.12 0.98 1.89 2.64 2.1l1.41 0.18-1.2 0.37c-1.66 0.51-5.78 0.7-7.05 0.33zm10.83-0.75c-0.74-0.62-0.86-0.88-0.62-1.33 0.4-0.75 0.38-3.39-0.03-3.8-0.24-0.24-0.23-0.51 0.03-1 0.41-0.76 0.21-2.52-0.35-3.2-0.21-0.25-0.72-0.6-1.14-0.78-0.76-0.32-0.76-0.32-0.08-0.44 1.11-0.19 4.83 0.49 6.06 1.12 0.63 0.32 1.22 0.8 1.33 1.07 0.1 0.27 0.19 2 0.19 3.86 0 3.39 0.2 4.13 1.2 4.46 0.92 0.3-1.25 0.82-3.45 0.82-1.94 0-2.32-0.1-3.13-0.77zm12.57 0.3c0-0.09 0.2-0.37 0.45-0.62 0.65-0.65 0.65-8.42 0.01-9.27-0.24-0.32-0.44-0.69-0.45-0.82 0-0.13 1.44-0.2 3.21-0.15 2.95 0.08 3.23 0.14 3.33 0.69 0.19 1.09 0.56 1.11 2.27 0.14 1.23-0.69 2.21-1 3.56-1.11 3.25-0.26 5.27 1.18 3.45 2.45-1.02 0.72-2.84 0.58-4.38-0.32-1.14-0.67-1.52-0.75-2.4-0.52-0.59 0.15-1.32 0.64-1.68 1.12-0.56 0.76-0.62 1.21-0.56 4.02 0.05 2.34 0.19 3.3 0.53 3.67 0.25 0.28 0.37 0.6 0.26 0.71-0.24 0.24-7.6 0.27-7.6 0.03zm24.71-0.11c-1.55-0.25-2.76-1.03-2.96-1.9-0.09-0.37-0.19-2.43-0.23-4.57l-0.07-3.9-1.05-0.16-1.05-0.16 1.8-0.93c0.99-0.51 2.64-1.55 3.68-2.31 1.03-0.76 2.01-1.38 2.17-1.38 0.16 0 0.3 0.68 0.3 1.52 0 2.4 0.27 2.68 2.61 2.68 2.43 0 2.23 0.39-0.31 0.6l-1.85 0.15-0.08 3.98c-0.05 2.31 0.05 4.22 0.22 4.55 0.49 0.92 1.94 1.07 3.38 0.36 0.69-0.34 1.3-0.57 1.36-0.5 0.28 0.28-2.68 1.69-4.12 1.97-1.72 0.33-1.94 0.33-3.8 0.02zm10.39-1.35c0-0.9 0.11-1.7 0.25-1.79 0.14-0.09 0.65 0.26 1.13 0.77 0.48 0.51 1.28 1.18 1.77 1.49l0.9 0.56-1.41 0c-0.77 0-1.49 0.14-1.59 0.3-0.1 0.17-0.38 0.3-0.62 0.3-0.32 0-0.43-0.41-0.43-1.63zm10.13 0.74c1.22-0.74 1.31-1.82 0.21-2.53-0.42-0.27-2.31-0.89-4.2-1.37-3.68-0.94-4.41-1.23-5.47-2.19-1.31-1.2-0.72-2.64 1.52-3.68 0.85-0.4 2.02-0.72 2.6-0.71l1.05 0.01-0.82 0.45c-1.16 0.63-1.11 1.76 0.11 2.5 0.51 0.31 2.35 0.92 4.09 1.36 4.52 1.13 5.78 1.89 5.78 3.45 0 0.46-0.27 1.18-0.6 1.6-0.66 0.84-2.88 1.72-4.33 1.72l-0.92 0 0.98-0.59zm-69.35-6.4c-0.94-0.69-0.5-1.78 1.02-2.51 0.74-0.36 1.8-0.74 2.35-0.85 0.95-0.19 0.98-0.17 0.61 0.41-0.33 0.53-0.29 0.71 0.28 1.32 0.37 0.39 0.66 0.87 0.66 1.07 0 0.88-3.87 1.32-4.92 0.56zm71.8-2.19c-0.4-0.43-1.17-1.01-1.72-1.29l-0.99-0.51 1.59 0c0.88 0 1.8-0.06 2.04-0.13 0.35-0.1 0.47 0.19 0.54 1.29 0.11 1.67-0.33 1.86-1.46 0.65zM25.35 165.84c-0.13-0.21-0.32-8.1-0.23-9.31 0.06-0.83 0.89-0.29 1.98 1.29 1.65 2.4 4.59 4.97 7.2 6.29 1.99 1.01 2.73 1.61 2.03 1.66-3.26 0.2-10.86 0.26-10.97 0.08zm46.75-0.08c-0.1-0.16 0.8-0.78 2.01-1.39 3.54-1.77 6.2-3.7 9.1-6.57 3.23-3.2 5.7-6.81 7.65-11.2 1.95-4.37 2.47-4.39 3.53-0.13 1.29 5.13 3.74 9.56 7.11 12.83 2.86 2.78 5.79 4.32 10.57 5.55 1.51 0.39 1.63 0.76 0.34 1.02-1.59 0.32-40.11 0.22-40.31-0.1zm76.87 0.07c-10.82-0.04-19.12-0.19-19.12-0.34 0-0.3 2.17-1.23 2.87-1.23 0.76 0 6.35-2.89 8.37-4.33 6.59-4.7 11.84-13.91 13.51-23.69 0.55-3.21 0.58-5.34 0.09-5.83-0.53-0.53-21.81-0.52-21.97 0.02-0.06 0.21-0.27 1.52-0.46 2.93-0.71 5.15-2.5 9-3.82 8.23-0.98-0.57-1.83-2.87-2.3-6.28-0.38-2.76-0.48-9.58-0.62-41.45-0.14-31.9-0.23-38.44-0.6-39.9-0.24-0.96-0.74-3.03-1.12-4.6-0.61-2.56-1.78-5.73-3.21-8.7-1.39-2.9-4.91-7.54-7.75-10.22-3.3-3.12-5.66-4.77-9.82-6.88-1.47-0.74-2.68-1.49-2.7-1.65-0.04-0.45 68.17-0.57 68.71-0.12 0.34 0.29 0.41 11.8 0.41 71.99 0 70.53-0.01 71.66-0.58 71.96-0.32 0.17-0.62 0.28-0.67 0.24-0.05-0.04-8.7-0.11-19.22-0.15zM64.82 140.39c-2.88-0.78-5.45-2.97-7.27-6.23-1.37-2.45-1.8-4.38-1.81-8.06 0-3.67 0.57-6.82 1.61-8.87 1.08-2.12 4.2-5.21 6.76-6.68 2.93-1.68 8.04-3.99 13.97-6.29 5.86-2.28 7.51-3.1 10.14-5.05 1.27-0.94 2.22-1.44 2.51-1.33 0.42 0.16 0.45 1.11 0.31 8.31-0.19 9.76-0.82 14.13-2.72 18.97-1.63 4.15-3.29 6.6-6.82 10.06-2.22 2.18-3.46 3.14-4.98 3.85-3.64 1.72-8.31 2.25-11.71 1.33zM25.28 101.47c-0.08-0.21-0.11-7.92-0.07-17.15 0.06-12.05 0.17-16.81 0.41-16.89 0.18-0.06 0.78 0.57 1.31 1.41 2 3.12 5.93 5.87 9.63 6.74 2.44 0.58 6.78 0.58 9.2 0.01 4.78-1.13 9.45-4.78 11.5-9 1.02-2.09 1.02-2.11 1.01-6.34l-0.01-4.24-1.18-2.32c-0.65-1.27-1.96-3.17-2.91-4.21-2.33-2.55-2.29-3.03 0.36-3.7 3.64-0.93 7.84-1.37 13.35-1.38 6.78-0.02 8.88 0.32 12.4 1.98 3.51 1.66 5.79 3.95 7.67 7.7 1.9 3.78 2.35 5.9 2.23 10.55-0.1 3.68-0.12 3.81-1.26 6.09-1.39 2.79-3.52 4.87-6.48 6.37-2.2 1.11-4.41 1.78-10.51 3.17-13.19 3.02-23.7 6.53-31.8 10.62-6.14 3.11-7.66 4.16-11.35 7.85-1.7 1.71-3.16 3.11-3.23 3.11-0.08 0-0.2-0.17-0.28-0.37zM25.14 29.73c0-6.07 0.08-7.68 0.41-7.95 0.63-0.52 18.49-0.42 18.49 0.11 0 0.21-0.44 0.56-0.97 0.76-2.78 1.07-6.1 2.86-8.21 4.43-2.74 2.03-7 6.55-8.26 8.75-0.48 0.83-1 1.51-1.16 1.51-0.18 0-0.29-2.84-0.29-7.61z" id="path3411" inkscape:connector-curvature="0" fill="#cb6363"/>
      <path d="m25.14 191.54c-0.35-0.65-0.13-1.8 0.42-2.16 0.18-0.12 31.94-0.22 70.57-0.22 60.65 0 70.29 0.05 70.6 0.43 0.2 0.24 0.31 0.88 0.26 1.43l-0.1 0.99-70.71 0.08-70.71 0.08-0.33-0.61zm2.41-5.07c0-0.16 0.37-0.46 0.83-0.68l0.83-0.4 0.08-6.68c0.09-7.09-0.01-7.68-1.3-8.17-1.66-0.63-0.66-0.89 3.44-0.89 3.52 0 4.2 0.07 4.35 0.47 0.1 0.26 0.18 3.58 0.18 7.37 0 4.29 0.12 7.12 0.32 7.49 0.18 0.33 0.66 0.72 1.07 0.88 0.41 0.16 0.67 0.42 0.56 0.59-0.24 0.39-10.35 0.41-10.35 0.02zm14.85-0.15c-2.13-0.79-2.57-2.3-1.1-3.77 1-1 3.66-1.88 8.14-2.68 1.71-0.31 3.2-0.73 3.35-0.96 0.42-0.64-0.02-2.15-0.83-2.88-0.62-0.56-1.09-0.67-2.77-0.67-1.28 0-2.24 0.16-2.61 0.43-0.57 0.42-0.57 0.44 0.09 1.14 0.37 0.4 0.68 0.87 0.68 1.06 0 1.24-4.5 1.84-5.5 0.72-1.2-1.33 0.08-2.98 2.86-3.69 2.4-0.62 10.19-0.52 11.93 0.15 2.39 0.91 2.71 1.42 2.73 4.37 0.01 1.41 0.11 3.18 0.23 3.92 0.19 1.25 0.27 1.36 1.18 1.44 1.36 0.13 1.22 0.51-0.45 1.16-2.14 0.82-5.15 0.75-6.38-0.16l-0.96-0.71-1.99 0.67c-2.58 0.86-6.89 1.1-8.59 0.46zm9.97-2.14c0.62-0.41 0.7-0.66 0.62-2.02-0.08-1.36-0.18-1.57-0.77-1.65-1.02-0.15-3.49 0.77-4.25 1.58-0.84 0.89-0.72 1.97 0.28 2.5 0.91 0.48 3.11 0.27 4.12-0.4zm14.1 2.09c-0.12-0.12-0.22-3.54-0.22-7.6 0-7.88-0.12-8.55-1.51-8.77-0.34-0.05-0.64-0.23-0.67-0.4-0.04-0.19 1.55-0.33 4.17-0.38l4.23-0.08 0.19 1.13c0.1 0.62 0.19 1.98 0.19 3.01 0 2.1 0 2.1 2.23 1.42 3.03-0.92 7.52-0.4 9.8 1.13 2.19 1.47 3.06 4.35 1.96 6.46-1.84 3.53-9.14 5.23-14.79 3.45-1.53-0.48-1.69-0.48-3.02 0.03-2.02 0.77-2.3 0.84-2.54 0.6zm11.78-1.24c1.43-0.71 2.1-2.16 2.1-4.51 0-3.31-1.33-4.86-4.2-4.86-1.28 0-1.92 0.16-2.51 0.62-0.77 0.61-0.79 0.7-0.79 4.14 0 3.64 0.14 4.13 1.35 4.79 0.91 0.5 2.87 0.41 4.05-0.18zM25.35 165.84c-0.13-0.21-0.32-8.1-0.23-9.31 0.06-0.83 0.89-0.29 1.98 1.29 1.65 2.4 4.59 4.97 7.2 6.29 1.99 1.01 2.73 1.61 2.03 1.66-3.26 0.2-10.86 0.26-10.97 0.08zm46.75-0.08c-0.1-0.16 0.8-0.78 2.01-1.39 3.54-1.77 6.2-3.7 9.1-6.57 3.23-3.2 5.7-6.81 7.65-11.2 1.95-4.37 2.47-4.39 3.53-0.13 1.29 5.13 3.74 9.56 7.11 12.83 2.86 2.78 5.79 4.32 10.57 5.55 1.51 0.39 1.63 0.76 0.34 1.02-1.59 0.32-40.11 0.22-40.31-0.1zm76.87 0.07c-10.82-0.04-19.12-0.19-19.12-0.34 0-0.3 2.17-1.23 2.87-1.23 0.76 0 6.35-2.89 8.37-4.33 6.59-4.7 11.84-13.91 13.51-23.69 0.55-3.21 0.58-5.34 0.09-5.83-0.53-0.53-21.81-0.52-21.97 0.02-0.06 0.21-0.27 1.52-0.46 2.93-0.71 5.15-2.5 9-3.82 8.23-0.98-0.57-1.83-2.87-2.3-6.28-0.38-2.76-0.48-9.58-0.62-41.45-0.14-31.9-0.23-38.44-0.6-39.9-0.24-0.96-0.74-3.03-1.12-4.6-0.61-2.56-1.78-5.73-3.21-8.7-1.39-2.9-4.91-7.54-7.75-10.22-3.3-3.12-5.66-4.77-9.82-6.88-1.47-0.74-2.68-1.49-2.7-1.65-0.04-0.45 68.17-0.57 68.71-0.12 0.34 0.29 0.41 11.8 0.41 71.99 0 70.53-0.01 71.66-0.58 71.96-0.32 0.17-0.62 0.28-0.67 0.24-0.05-0.04-8.7-0.11-19.22-0.15zm5.3-42.56c0.43-0.16 0.47-3.89 0.47-39.08 0-34.72-0.05-38.97-0.47-39.57-0.45-0.65-0.62-0.67-5.62-0.64-2.84 0.02-5.89 0.12-6.79 0.23l-1.63 0.2-0.51 2.91c-0.93 5.26-3.28 11.18-6.52 16.39l-1.55 2.5 0 8.23c0 4.52 0.1 8.22 0.23 8.21 0.12-0.01 0.83-0.85 1.58-1.87 1.01-1.39 1.56-1.89 2.17-1.96 0.69-0.08 0.82 0.02 0.83 0.6 0 0.38 0 10.36-0.01 22.16-0.01 11.81 0.08 21.56 0.19 21.68 0.25 0.25 16.97 0.28 17.63 0.03zM64.82 140.39c-2.88-0.78-5.45-2.97-7.27-6.23-1.37-2.45-1.8-4.38-1.81-8.06 0-3.67 0.57-6.82 1.61-8.87 1.08-2.12 4.2-5.21 6.76-6.68 2.93-1.68 8.04-3.99 13.97-6.29 5.86-2.28 7.51-3.1 10.14-5.05 1.27-0.94 2.22-1.44 2.51-1.33 0.42 0.16 0.45 1.11 0.31 8.31-0.19 9.76-0.82 14.13-2.72 18.97-1.63 4.15-3.29 6.6-6.82 10.06-2.22 2.18-3.46 3.14-4.98 3.85-3.64 1.72-8.31 2.25-11.71 1.33zM25.28 101.47c-0.08-0.21-0.11-7.92-0.07-17.15 0.06-12.05 0.17-16.81 0.41-16.89 0.18-0.06 0.78 0.57 1.31 1.41 2 3.12 5.93 5.87 9.63 6.74 2.44 0.58 6.78 0.58 9.2 0.01 4.78-1.13 9.45-4.78 11.5-9 1.02-2.09 1.02-2.11 1.01-6.34l-0.01-4.24-1.18-2.32c-0.65-1.27-1.96-3.17-2.91-4.21-2.33-2.55-2.29-3.03 0.36-3.7 3.64-0.93 7.84-1.37 13.35-1.38 6.78-0.02 8.88 0.32 12.4 1.98 3.51 1.66 5.79 3.95 7.67 7.7 1.9 3.78 2.35 5.9 2.23 10.55-0.1 3.68-0.12 3.81-1.26 6.09-1.39 2.79-3.52 4.87-6.48 6.37-2.2 1.11-4.41 1.78-10.51 3.17-13.19 3.02-23.7 6.53-31.8 10.62-6.14 3.11-7.66 4.16-11.35 7.85-1.7 1.71-3.16 3.11-3.23 3.11-0.08 0-0.2-0.17-0.28-0.37zM25.14 29.73c0-6.07 0.08-7.68 0.41-7.95 0.63-0.52 18.49-0.42 18.49 0.11 0 0.21-0.44 0.56-0.97 0.76-2.78 1.07-6.1 2.86-8.21 4.43-2.74 2.03-7 6.55-8.26 8.75-0.48 0.83-1 1.51-1.16 1.51-0.18 0-0.29-2.84-0.29-7.61z" id="path3409" inkscape:connector-curvature="0" fill="#616061"/>
      <path d="m25.56 191.42c-0.09-0.24-0.12-0.74-0.07-1.13l0.1-0.7 69.9-0.06c38.44-0.04 70.21 0 70.59 0.09 0.58 0.12 0.68 0.31 0.6 1.11l-0.09 0.96-70.43 0.08c-60.83 0.07-70.46 0.02-70.6-0.35zm3.43-5.67c0.63-0.67 0.65-0.93 0.65-7.33l0-6.63-0.78-0.93-0.78-0.93 3.71 0.08 3.71 0.08 0.15 7.35c0.15 6.97 0.31 8.4 0.93 8.4 0.15 0 0.27 0.14 0.27 0.3 0 0.19-1.62 0.3-4.25 0.3l-4.25 0 0.65-0.69zm13.17 0.22c-1.83-0.79-1.94-2.49-0.24-3.64 1.28-0.86 3.3-1.46 7.32-2.16 1.72-0.3 3.28-0.64 3.46-0.75 0.46-0.29 0.42-2.64-0.06-3.3-0.22-0.3-1.06-0.73-1.87-0.96-1.47-0.42-1.46-0.42 1.52-0.29 3.41 0.15 4.91 0.51 6.02 1.47 0.74 0.63 0.78 0.85 0.94 4.41 0.09 2.06 0.3 3.91 0.46 4.12 0.16 0.21 0.58 0.38 0.94 0.39 0.55 0.01 0.52 0.08-0.26 0.51-0.63 0.35-1.65 0.5-3.35 0.51-2.2 0.01-2.53-0.06-3.23-0.72l-0.78-0.73-1.87 0.69c-2.49 0.92-7.33 1.16-9 0.44zm8.93-1.01c1.94-0.45 2.66-1.9 2.05-4.17-0.17-0.64-0.32-0.69-1.47-0.56-1.61 0.18-3.94 1.29-4.36 2.08-0.51 0.94-0.06 2.03 1.02 2.5 1.15 0.5 1.23 0.51 2.76 0.15zm15.61 0.82c-0.07-0.21-0.17-3.73-0.23-7.83l-0.11-7.45-0.74-0.57c-0.73-0.57-0.73-0.57 3.01-0.5l3.75 0.07 0.09 2.93c0.1 3.3 0.04 3.24 2.49 2.44 1.09-0.36 2.22-0.45 4.26-0.35 4.41 0.21 6.95 1.65 7.7 4.36 1 3.63-2.7 6.72-8.55 7.14l-2.08 0.15 1.18-0.46c2.29-0.89 3.17-2.31 3.17-5.1 0-1.95-0.51-3.31-1.62-4.34-0.63-0.58-1.2-0.76-2.68-0.86-1.69-0.11-1.97-0.04-2.84 0.69l-0.96 0.81 0 3.44c0 3.72 0.18 4.36 1.43 5.04 1.16 0.63 0.13 0.61-1.91-0.03-1.53-0.48-1.64-0.48-3.28 0.15-1.99 0.76-1.93 0.75-2.08 0.27zm-23.83-6.79c-0.39-0.11-0.9-0.48-1.13-0.82-0.36-0.55-0.34-0.72 0.19-1.39 0.65-0.83 2.88-1.73 4.29-1.73l0.88 0-0.66 0.53-0.66 0.53 0.65 0.83c0.83 1.06 0.61 1.59-0.81 1.99-1.26 0.35-1.69 0.36-2.76 0.06zm-17.59-13.61c-0.29-0.75 0-8.73 0.32-8.83 0.17-0.06 0.55 0.31 0.85 0.82 1.49 2.53 6.13 6.49 8.77 7.49 0.42 0.16 0.69 0.39 0.62 0.52-0.08 0.13-2.45 0.27-5.27 0.32-4.11 0.07-5.16 0.01-5.29-0.32zm47.26 0.23c0-0.08 0.84-0.57 1.88-1.09 7.26-3.66 13.49-10.35 16.74-17.97 1.72-4.02 2.1-3.97 3.11 0.43 0.61 2.67 2.99 7.6 4.83 10.04 2.76 3.64 7.08 6.52 11.63 7.76 1.12 0.3 1.94 0.65 1.83 0.77-0.23 0.23-40.01 0.3-40.01 0.07zm95.05 0c-0.08-0.08-8.41-0.15-18.51-0.16-17.08-0.02-20.25-0.16-16.91-0.77 1.49-0.27 6.67-2.87 8.95-4.49 1.01-0.72 3.06-2.6 4.54-4.18 2.35-2.5 2.98-3.42 4.81-7.01 2.93-5.75 4.85-12.47 4.86-17.03 0-2.27 0.41-2.2-11.68-2.2-8.24 0-10.81 0.09-11.03 0.38-0.16 0.21-0.46 1.59-0.66 3.08-0.74 5.36-2.26 8.84-3.52 8.07-0.65-0.4-1.45-2.52-1.9-5.04-0.22-1.2-0.42-14.75-0.59-39.48-0.26-36.75-0.36-41.5-0.89-43.35-0.14-0.49-0.56-2.18-0.92-3.75-0.91-3.95-2.78-8.51-4.8-11.7-4.15-6.56-11.21-12.73-17.48-15.26-0.45-0.18-0.83-0.44-0.83-0.56 0-0.24 67.07-0.18 67.73 0.06 0.3 0.11 0.38 14.72 0.38 71.67 0 64.95-0.04 71.54-0.47 71.71-0.57 0.22-0.88 0.23-1.07 0.04zm-13.06-42.23c0.48-0.35 0.51-2.86 0.43-39.44l-0.08-39.07-0.63-0.63c-0.62-0.62-0.77-0.63-7.1-0.42-3.56 0.12-6.62 0.32-6.82 0.44-0.2 0.12-0.56 1.42-0.8 2.88-0.83 4.98-3.52 11.65-6.8 16.91l-1.4 2.24 0 8.32c0 4.67 0.12 8.39 0.27 8.48 0.15 0.09 0.88-0.68 1.62-1.72 0.74-1.04 1.57-2.07 1.84-2.3 1.2-1 1.22-0.66 1.1 22.05-0.09 16.99-0.03 21.83 0.26 22.18 0.31 0.38 1.71 0.45 8.98 0.45 6.42 0 8.74-0.1 9.12-0.38zm-88.82 16.86c-2.76-0.54-5.97-2.69-6.98-4.67-0.24-0.47-0.74-1.33-1.1-1.91-2.04-3.25-2.13-11.36-0.17-15.9 0.32-0.74 1.33-2.23 2.25-3.3 2.61-3.06 6.85-5.36 17.92-9.75 6.97-2.76 7.93-3.23 10.61-5.22 1.13-0.84 2.18-1.45 2.33-1.36 0.45 0.28 0.31 12.86-0.2 16.94-1.04 8.42-3.08 13.47-7.33 18.14-4.17 4.6-7.34 6.45-12.02 7.03-2.85 0.36-3.51 0.36-5.31 0zM25.44 84.6c0-10.5 0.11-16.65 0.29-16.65 0.16 0 0.45 0.3 0.65 0.67 0.56 1.05 3.28 3.81 4.76 4.84 2.05 1.42 3.17 1.92 5.41 2.43 4.23 0.96 9.34 0.42 13.11-1.4 2.85-1.38 6.53-5.04 7.91-7.88 1.02-2.1 1.02-2.11 1-6.35l-0.02-4.25-1.16-2.35c-0.73-1.48-1.81-3.03-2.93-4.19-2.63-2.73-2.47-2.94 2.94-3.88 4.68-0.81 8.72-1.11 12.9-0.94 5.19 0.2 6.83 0.54 9.98 2.09 3.53 1.73 5.63 3.87 7.51 7.63 1.73 3.47 1.82 3.78 2.15 7.64 0.33 3.79-0.01 6.13-1.23 8.62-2.53 5.15-6.32 7.12-19.01 9.92-4.87 1.08-6.24 1.44-11.1 2.95-9.33 2.9-16.16 5.68-22.35 9.1-2.44 1.35-5.37 3.59-7.75 5.96-1.5 1.48-2.8 2.7-2.89 2.7-0.09 0-0.16-7.49-0.16-16.65zm0-55.01c0-4.1 0.12-7.27 0.28-7.37 0.43-0.27 17.42-0.34 17.42-0.08 0 0.13-0.24 0.31-0.53 0.41-1.89 0.64-5.75 2.75-7.76 4.24-2.69 2-7.4 6.86-8.24 8.52-0.31 0.61-0.7 1.19-0.87 1.3-0.2 0.13-0.3-2.22-0.3-7.01z" id="path3407" inkscape:connector-curvature="0" fill="#2b2829"/>
      <path d="m25.55 191.1c-0.09-0.25-0.09-0.65 0-0.9 0.15-0.4 8.25-0.45 70.35-0.45 74.52 0 71.2-0.06 70.67 1.31-0.17 0.45-5.84 0.49-70.51 0.49-62.24 0-70.35-0.05-70.5-0.45zm3.73-4.81c-0.11-0.11 0-0.52 0.25-0.9 0.39-0.59 0.42-1.68 0.25-7.39-0.16-5.08-0.31-6.82-0.63-7.18-0.38-0.43-0.27-0.5 0.98-0.67 0.77-0.11 2.24-0.19 3.26-0.19l1.86 0 0.2 3.83c0.11 2.1 0.2 5.52 0.2 7.59 0 2.5 0.12 3.88 0.36 4.12 0.2 0.2 0.3 0.41 0.23 0.47-0.25 0.23-6.74 0.53-6.94 0.33zm14.16-0.1c-3.5-0.76-3.48-3.03 0.03-4.44 1.86-0.74 6.76-1.74 5.86-1.19-1.65 1-2.28 1.77-2.28 2.73 0 1.24 0.6 1.74 2.36 1.97l1.39 0.18-1.2 0.34c-1.63 0.47-4.87 0.68-6.15 0.41zm10.42-0.82c-0.77-0.56-1.03-0.92-0.82-1.13 0.41-0.41 0.39-3.88-0.02-4.29-0.23-0.23-0.23-0.38 0-0.53 0.18-0.11 0.33-0.74 0.33-1.41 0-0.94-0.2-1.4-0.9-2.11-0.49-0.49-0.9-0.95-0.9-1.02 0-0.17 2.55 0.14 4.29 0.52 0.79 0.17 1.84 0.65 2.33 1.06l0.88 0.74 0 3.71c0 3.47 0.04 3.74 0.66 4.17 0.36 0.25 0.56 0.56 0.45 0.67-0.12 0.12-1.32 0.26-2.68 0.33-2.31 0.11-2.54 0.06-3.6-0.71zm12.88-1.09c-0.1-0.87-0.19-4.26-0.19-7.55 0-5.02-0.08-6.06-0.48-6.5-0.44-0.49-0.37-0.54 1.13-0.72 0.88-0.11 2.34-0.15 3.25-0.1l1.65 0.1 0.15 2.94c0.1 2.05 0.28 3.01 0.56 3.19 0.35 0.21 0.34 0.37-0.07 0.95-0.41 0.59-0.46 1.24-0.3 4.16 0.11 2.16 0.34 3.72 0.6 4.14 0.5 0.8 0.27 0.84-1.25 0.2-1.06-0.44-1.23-0.44-2.76 0.15-0.9 0.34-1.73 0.62-1.86 0.62-0.13 0-0.32-0.71-0.42-1.57zm12.19 0.93c1.33-0.99 1.83-2.26 1.84-4.62 0.01-3.24-1.27-4.99-4.02-5.5l-1.35-0.25 1.78-0.24c1.98-0.27 5.07 0.17 6.59 0.94 4.24 2.14 4.25 6.71 0.03 8.87-1.39 0.71-3.87 1.42-4.95 1.41l-0.75-0.01 0.83-0.62zM42.48 178.74c-0.58-0.15-0.93-1-0.69-1.64 0.25-0.64 1.69-1.4 3.08-1.63 1.15-0.18 1.22-0.16 1.06 0.45-0.11 0.43 0.05 0.89 0.49 1.35l0.66 0.7-0.69 0.48c-0.65 0.46-2.69 0.6-3.92 0.28zM25.57 165.48c-0.23-0.23-0.14-8.73 0.09-8.72 0.12 0 0.68 0.68 1.24 1.51 1.38 2.04 4 4.39 6.49 5.84 1.4 0.81 1.88 1.22 1.48 1.26-1.33 0.14-9.19 0.24-9.31 0.12zm47.57 0.01c0-0.14 0.57-0.5 1.27-0.82 1.98-0.89 5.58-3.33 7.77-5.26 3.8-3.36 7.34-8.38 9.31-13.2 1.22-2.98 1.69-3 2.36-0.1 1.45 6.21 4.87 11.86 9.12 15.05 2.26 1.7 3.59 2.39 6.61 3.43l2.4 0.83-9.3 0.04c-5.11 0.02-13.86 0.09-19.42 0.16-5.57 0.06-10.12 0.01-10.12-0.13zm58.5-0.26c0-0.17 0.47-0.4 1.04-0.5 1.36-0.26 4.82-1.97 7.74-3.84 7-4.49 12.85-14.25 14.6-24.38 0.48-2.8 0.47-6.17-0.02-6.48-0.23-0.14-5.36-0.26-11.4-0.27-8.44 0-11.06 0.08-11.29 0.37-0.16 0.21-0.38 0.98-0.47 1.73-0.64 4.88-0.88 6-1.63 7.5-1.19 2.38-1.82 2.27-2.72-0.45-1.04-3.13-1.24-8.43-1.26-33.15-0.02-25.37-0.44-50.61-0.87-51.99-0.16-0.53-0.59-2.25-0.96-3.81-0.59-2.55-1.27-4.67-2.06-6.45-2.07-4.65-3.01-6.22-5.76-9.6-3.71-4.58-9.26-9.06-13.53-10.95-0.78-0.35-1.43-0.66-1.43-0.69 0-0.03 14.95-0.03 33.23 0.02 18.27 0.04 33.39 0.08 33.6 0.08 0.3 0 0.36 14.39 0.3 71.47l-0.08 71.48-0.9-0.04c-3.35-0.16-33.04-0.1-34.42 0.07-1.11 0.13-1.72 0.1-1.72-0.1zm8.36-1.85c0.33-0.21 0.28-0.31-0.22-0.46-0.68-0.22-1.24-0.01-1.24 0.45 0 0.35 0.91 0.36 1.46 0.01zm4.67-0.3c0.2-0.33-0.43-0.59-0.96-0.4-0.21 0.08-0.37 0.26-0.37 0.41 0 0.35 1.12 0.35 1.33-0.01zm11.5 0.05c-0.78-0.06-2.13-0.06-3 0-0.87 0.06-0.24 0.11 1.41 0.11 1.65 0 2.36-0.05 1.59-0.11zm8.16-0.08c0-0.16-0.26-0.3-0.58-0.3-0.32 0-0.67 0.14-0.77 0.3-0.11 0.17 0.15 0.3 0.58 0.3 0.42 0 0.77-0.13 0.77-0.3zm-21.06-2.86c-0.09-0.09-0.26 0.07-0.37 0.37-0.16 0.43-0.13 0.46 0.17 0.17 0.21-0.2 0.3-0.45 0.2-0.54zm1.72-1.06c0.32-0.52-0.04-0.63-0.46-0.14-0.24 0.29-0.26 0.46-0.06 0.46 0.18 0 0.41-0.14 0.52-0.32zm1.64-1.48c0.18-0.33 0.27-0.6 0.21-0.6-0.06 0-0.36 0.27-0.66 0.6-0.3 0.33-0.39 0.6-0.21 0.6 0.18 0 0.48-0.27 0.66-0.6zm1.92-1.97c0.28-0.73 0.22-0.83-0.27-0.43-0.5 0.41-0.6 0.9-0.18 0.9 0.15 0 0.35-0.21 0.45-0.47zm7.08-14.23c0-0.16-0.13-0.3-0.3-0.3-0.16 0-0.3 0.14-0.3 0.3 0 0.17 0.14 0.3 0.3 0.3 0.17 0 0.3-0.13 0.3-0.3zm1.2-2.68c0-0.16-0.13-0.37-0.3-0.47-0.16-0.1-0.3 0.03-0.3 0.28 0 0.26 0.14 0.47 0.3 0.47 0.17 0 0.3-0.13 0.3-0.28zm-27.5-3.31c-0.24-0.26-0.69 0.73-0.69 1.52-0.01 1.34 0.44 1.29 0.63-0.07 0.1-0.72 0.13-1.37 0.06-1.44zm0.04-2.87c0.42-0.42 0.76-0.96 0.76-1.2 0-0.52 0.03-0.52-1.16-0.11-0.77 0.27-0.94 0.49-0.94 1.2 0 1.07 0.34 1.1 1.34 0.11zm27.97-0.79c-0.1-0.24-0.17-0.17-0.18 0.18-0.01 0.32 0.06 0.49 0.16 0.39 0.1-0.1 0.11-0.36 0.02-0.57zm-1.25-4.44c0.1-0.16 0.04-0.3-0.13-0.3-0.17 0-0.32 0.14-0.32 0.3 0 0.17 0.06 0.3 0.13 0.3 0.07 0 0.22-0.13 0.32-0.3zm-1.33-3.61c0.57-0.3 0.58-1.06 0.58-39.47l0-39.16-0.86-0.86-0.86-0.86-6.41 0.18c-3.53 0.1-6.65 0.3-6.93 0.44-0.55 0.28-0.57 0.36-1.12 3.7-0.73 4.48-3.2 10.52-6.65 16.25l-1.47 2.45 0.08 8.48c0.06 6.14 0.18 8.51 0.43 8.59 0.19 0.06 1.11-0.91 2.04-2.17 0.93-1.26 1.85-2.23 2.05-2.17 0.27 0.09 0.36 5.31 0.36 22.02 0 18.12 0.07 21.99 0.41 22.4 0.37 0.44 1.37 0.5 9.09 0.5 5.41 0 8.9-0.12 9.26-0.31zm2.3-58.43c-0.05-2.92-0.09-0.45-0.09 5.49 0 5.94 0.04 8.33 0.09 5.31 0.05-3.02 0.05-7.88 0-10.8zm-0.02-6.87c-0.08-0.29-0.14-0.13-0.15 0.37-0.01 0.5 0.06 0.73 0.14 0.53 0.08-0.2 0.09-0.61 0.01-0.9zm-29.61-6.38c0-1.22 0.1-1.5 0.53-1.52 0.29-0.01 0.36-0.09 0.17-0.17-0.2-0.08-0.64 0-0.97 0.18-0.62 0.33-0.82 1.52-0.43 2.53 0.36 0.95 0.72 0.44 0.72-1.03zm30-1.39c0-0.62-0.12-0.97-0.3-0.86-0.16 0.1-0.3 0.66-0.3 1.24 0 0.62 0.12 0.97 0.3 0.86 0.17-0.1 0.3-0.66 0.3-1.24zm-30.78-2.56c-0.25-0.4-0.64-0.3-0.84 0.22-0.29 0.76 0.15 1.19 0.61 0.57 0.22-0.3 0.32-0.65 0.24-0.8zm2.58-0.86c0-0.16-0.2-0.3-0.45-0.3-0.25 0-0.45 0.14-0.45 0.3 0 0.17 0.2 0.3 0.45 0.3 0.25 0 0.45-0.13 0.45-0.3zm-3.72-1.42c-0.3-0.3-0.56 0.15-0.31 0.56 0.19 0.31 0.26 0.31 0.36 0 0.07-0.21 0.04-0.46-0.05-0.56zm-0.75-3.27c0.35-0.42 0.33-0.47-0.16-0.37-0.31 0.06-0.62 0.28-0.69 0.48-0.18 0.54 0.38 0.46 0.85-0.11zm-4.47-6.78c-0.22-0.22-0.35-0.23-0.35-0.04 0 0.4 0.35 0.76 0.56 0.56 0.09-0.09 0-0.31-0.2-0.51zm1.07-2.81c-0.29-0.29-0.86 0.18-0.65 0.52 0.13 0.2 0.29 0.2 0.51-0.02 0.18-0.18 0.24-0.4 0.14-0.51zm-2.92-0.27c0-0.25-0.13-0.45-0.3-0.45-0.16 0-0.3 0.2-0.3 0.45 0 0.25 0.14 0.45 0.3 0.45 0.17 0 0.3-0.2 0.3-0.45zm-1.5-2.25c0.29-0.54 0.23-0.6-0.59-0.6-0.97 0-1.14 0.25-0.55 0.84 0.51 0.51 0.77 0.45 1.14-0.24zm-2.7-1.93c0-0.07-0.13-0.22-0.3-0.32-0.16-0.1-0.3-0.04-0.3 0.13 0 0.17 0.14 0.32 0.3 0.32 0.17 0 0.3-0.06 0.3-0.13zm-3.07-3.71c0.07-0.2-0.09-0.36-0.36-0.36-0.26 0-0.47 0.21-0.47 0.48 0 0.53 0.65 0.44 0.83-0.12zM65.7 139.91c-3.07-0.51-5.47-2.3-7.3-5.43-1.62-2.77-2.06-4.52-2.06-8.24-0.01-4.98 1.11-8.98 3.12-11.2 0.55-0.61 1.12-1.31 1.26-1.56 0.82-1.41 7.93-5.04 16.61-8.48 6.95-2.75 8.56-3.54 11-5.37 1.01-0.76 2-1.38 2.2-1.38 0.49 0 0.13 13.36-0.48 17.85-0.98 7.21-3.41 13.06-7.06 16.98-4.05 4.35-7.42 6.3-11.83 6.84-2.99 0.37-3.23 0.37-5.46 0zM25.76 84.57c0.01-15.29 0.05-16.41 0.5-15.72 1.02 1.58 4.82 4.99 6.54 5.87 2.68 1.38 4.43 1.77 7.94 1.77 6 0 9.67-1.42 13.52-5.24 1.59-1.58 2.61-2.93 3.42-4.5l1.15-2.25-0.04-4.22c-0.03-3.86-0.1-4.37-0.81-5.92-0.43-0.93-0.9-1.77-1.06-1.87-0.15-0.1-0.28-0.4-0.28-0.67 0-0.27-0.91-1.41-2.01-2.53-1.21-1.22-1.9-2.13-1.72-2.28 0.45-0.39 2.49-0.94 4.79-1.28 8.95-1.33 18.04-1.12 21.15 0.48 0.41 0.21 1.4 0.7 2.2 1.09 0.8 0.39 2.28 1.52 3.3 2.52 2.42 2.37 4.81 7.01 5.29 10.25 1.23 8.43-1.25 13.69-7.93 16.9-2.43 1.16-11.45 3.59-13.44 3.61-0.53 0.01-1.3 0.2-1.72 0.44-0.41 0.24-1.06 0.43-1.45 0.44-1.12 0.02-15.39 4.69-19.25 6.31-4.07 1.7-9.52 4.52-12.17 6.28-1.43 0.95-3.8 2.92-5.27 4.37l-2.67 2.64 0.02-16.47zm6.28 6.9c0-0.47-0.27-0.52-0.87-0.14-0.25 0.16-0.34 0.48-0.22 0.78 0.16 0.42 0.28 0.44 0.64 0.14 0.25-0.2 0.45-0.56 0.45-0.78zm3.22-0.29c-0.1-0.1-0.36-0.11-0.57-0.02-0.24 0.1-0.17 0.17 0.18 0.18 0.32 0.01 0.49-0.06 0.39-0.16zm1.11-0.6c0.67-0.26 0.59-0.72-0.13-0.72-0.33 0-0.6 0.2-0.6 0.45 0 0.5 0.05 0.53 0.73 0.27zm12.49-5.68c0.49-0.25 0.89-0.6 0.89-0.77 0-0.55-1.27-0.15-1.73 0.55-0.52 0.79-0.36 0.84 0.84 0.22zm-6.61-0.44c0-0.16-0.06-0.3-0.13-0.3-0.07 0-0.22 0.14-0.32 0.3-0.1 0.17-0.04 0.3 0.13 0.3 0.17 0 0.32-0.13 0.32-0.3zm15-2.55c0-0.55-0.23-0.55-1.2 0l-0.75 0.43 0.98 0.01c0.67 0.01 0.98-0.13 0.98-0.44zm4.4-1.09c0.52-0.43 0.52-0.86-0.01-0.86-0.82 0-2.61 0.92-2.41 1.24 0.23 0.37 1.82 0.12 2.42-0.38zM34.85 77.79c-0.07-0.12-0.6 0.07-1.18 0.42-0.74 0.44-0.95 0.7-0.69 0.86 0.4 0.25 2.08-0.91 1.87-1.28zm10.83 0.39c0.09-0.15-0.04-0.35-0.28-0.44-0.53-0.2-1.35 0.06-1.35 0.44 0 0.35 1.41 0.35 1.63 0zM30.84 75.8c0-0.14-0.54-0.68-1.2-1.21-1.4-1.12-1.59-0.82-0.33 0.53 0.84 0.9 1.53 1.2 1.53 0.68zm23.1-1.55c0-0.16-0.13-0.3-0.28-0.3-0.16 0-0.37 0.14-0.47 0.3-0.1 0.17 0.03 0.3 0.28 0.3 0.26 0 0.47-0.13 0.47-0.3zm6.2-8.46c-0.1-0.24-0.17-0.17-0.18 0.18-0.01 0.32 0.06 0.49 0.16 0.39 0.1-0.1 0.11-0.36 0.02-0.58zm26.26-10.2c-0.28-0.28-0.36-0.2-0.36 0.36 0 0.56 0.08 0.64 0.36 0.36 0.28-0.28 0.28-0.44 0-0.72zm-25.72 0.08c0.09-0.15 0.04-0.36-0.13-0.47-0.17-0.1-0.3 0.02-0.3 0.28 0 0.53 0.18 0.6 0.44 0.19zm24.76-1.84c0-1.21-3.21-4.48-4.4-4.48-0.68 0-0.45 0.59 0.37 0.97 1.24 0.57 3.12 2.44 3.12 3.11 0 0.34 0.09 0.71 0.2 0.82 0.38 0.38 0.7 0.2 0.7-0.42zm-29.1-5.32c0-0.13-0.16-0.4-0.36-0.6-0.2-0.2-0.47-0.36-0.6-0.36-0.39 0-0.27 0.84 0.14 1 0.58 0.23 0.83 0.22 0.83-0.04zm-30.53-19.27 0.08-6.91 8.31-0.07c4.57-0.04 8.22 0.01 8.1 0.11-0.12 0.1-0.95 0.48-1.86 0.86-3.11 1.28-7.33 4.4-10.54 7.78-1.66 1.75-3.2 3.62-3.42 4.16-0.22 0.54-0.49 0.98-0.58 0.98-0.09 0-0.13-3.11-0.09-6.91zm4.49-0.5c0.99-0.95 1.08-1.59 0.24-1.59-0.62 0-1.89 1.7-1.61 2.15 0.24 0.39 0.48 0.3 1.38-0.56zm-1.26-3.88c0-0.44-0.17-0.72-0.46-0.72-0.54 0-0.88 0.71-0.63 1.34 0.26 0.67 1.09 0.2 1.09-0.63zm5.33 0.23c0.09-0.26-0.06-0.37-0.4-0.3-0.29 0.06-0.6 0.29-0.67 0.51-0.09 0.26 0.06 0.37 0.4 0.3 0.29-0.06 0.6-0.29 0.67-0.51zm0.97-0.95c0-0.16-0.06-0.3-0.13-0.3-0.07 0-0.22 0.14-0.32 0.3-0.1 0.17-0.04 0.3 0.13 0.3 0.17 0 0.32-0.13 0.32-0.3z" id="path3405" inkscape:connector-curvature="0" fill="#211d1e"/>
      <path d="m25.87 191.27c-0.07-0.07-0.13-0.37-0.13-0.67 0-0.53 2.33-0.55 70.37-0.55l70.37 0-0.1 0.61c-0.1 0.61-0.1 0.61-70.25 0.68-38.58 0.04-70.21 0.01-70.27-0.06zm3.76-5.71c0.51-0.95 0.4-13.48-0.12-14.49l-0.43-0.82 3.11 0 3.11 0 0.09 7.45c0.07 5.77 0.19 7.57 0.51 7.95 0.38 0.46 0.13 0.5-3.09 0.5-3.36 0-3.49-0.02-3.19-0.58zm12.68 0.13c-1.11-0.48-1.42-1.03-1.15-2.08 0.28-1.11 2.64-2.11 7.15-3.01 0.32-0.06 0.12 0.26-0.52 0.88-0.64 0.6-1.04 1.26-1.04 1.72 0 0.88 1.01 1.87 2.25 2.2l0.9 0.24-0.9 0.22c-1.61 0.39-5.64 0.29-6.68-0.16zm12.68 0.25c-0.33-0.09-0.89-0.43-1.25-0.77-0.55-0.5-0.6-0.73-0.35-1.4 0.18-0.46 0.21-1.49 0.09-2.44-0.12-0.91-0.19-2.36-0.15-3.22 0.05-1.35-0.05-1.68-0.74-2.37l-0.8-0.8 1.76 0.19c2.31 0.25 3.81 0.69 4.63 1.36 0.61 0.5 0.68 0.86 0.8 4.42 0.1 2.91 0.25 3.96 0.57 4.22 0.32 0.25 0.34 0.4 0.09 0.56-0.45 0.28-3.85 0.46-4.64 0.24zm11.8-7.71c-0.1-5.71-0.23-7.76-0.53-8.12-0.35-0.43-0.08-0.47 2.79-0.47l3.19 0 0 2.98c0 1.67 0.13 3.06 0.3 3.17 0.2 0.12 0.2 0.37 0 0.75-0.4 0.75-0.39 7.08 0.02 7.85 0.44 0.81 0.28 0.89-0.98 0.51-1.04-0.32-1.86-0.17-4.18 0.79-0.44 0.18-0.5-0.55-0.62-7.44zm12.46 7c1.57-0.99 2.21-5.28 1.14-7.64-0.67-1.47-1.16-1.89-2.81-2.41l-1.28-0.4 2.28-0.02c4.07-0.04 7.02 1.33 7.92 3.67 0.96 2.51-0.26 4.69-3.41 6.15-1.7 0.78-4.91 1.33-3.83 0.65zm-36.33-6.5c-0.37-0.07-0.8-0.37-0.96-0.66-0.43-0.8 0.35-1.69 1.99-2.25 1.79-0.61 1.98-0.6 1.77 0.07-0.11 0.34 0.06 0.76 0.43 1.1 0.89 0.81 0.74 1.29-0.52 1.64-1.15 0.32-1.51 0.33-2.7 0.1zM25.64 165.25c-0.29-0.29-0.24-8.2 0.05-8.2 0.14 0 0.77 0.75 1.4 1.67 1.32 1.91 3.43 3.81 5.93 5.3l1.73 1.04-1.85 0.19c-2.42 0.25-7.01 0.25-7.26-0.01zm49.75-0.94c3.08-1.64 4.8-2.91 7.62-5.6 4.06-3.88 6.86-8.11 9.28-14.03 0.19-0.45 0.47-0.82 0.64-0.82 0.17 0 0.38 0.37 0.48 0.83 1.49 6.75 3.91 11.39 7.88 15.14 2.37 2.23 4.47 3.52 7.77 4.74l2.33 0.87-19.05 0.01-19.05 0.01 2.1-1.12zm57.6 0.59c0.5-0.06 1.1-0.27 1.35-0.49 0.37-0.32 3.17-1.66 3.46-1.66 0.05 0 0.01 0.28-0.08 0.61-0.16 0.61-0.14 0.61 14.8 0.53l14.96-0.09 0.08-70.13 0.08-70.12-30.47 0c-18.09 0-30.4 0.11-30.3 0.27 0.09 0.15 0.88 0.67 1.74 1.16 1.59 0.9 7.43 6.37 8.78 8.21 1.61 2.21 4.04 5.94 4.04 6.19 0 0.15 0.25 0.6 0.54 0.99 0.46 0.6 1.77 3.71 2.76 6.57 0.3 0.87 0.98 3.58 1.52 6.09 0.21 0.96 0.49 1.81 0.62 1.89 0.14 0.08 0.44-0.29 0.67-0.84 0.23-0.55 0.9-2.09 1.49-3.43 3.18-7.26 3.43-8.54 2.13-10.75-0.71-1.21-0.75-1.52-0.67-4.7l0.09-3.41 1.49-0.71c0.82-0.39 1.88-0.73 2.35-0.75 0.73-0.03 0.91 0.13 1.22 1.01 0.23 0.68 0.51 1.01 0.8 0.92 0.24-0.07 1.18-0.21 2.08-0.3 1.5-0.16 1.69-0.26 2.12-1.17 0.26-0.55 0.66-1.12 0.9-1.27 1.47-0.93 15.57 0.63 19.01 2.11 1.6 0.69 2.67 2.06 4.57 5.88 1.22 2.46 1.38 3.03 1.67 6.02 0.38 3.92 0.22 5.03-0.98 6.69-1.13 1.56-2.52 2.42-3.89 2.42-1.36 0-2.24-0.63-3.03-2.18-0.73-1.42-2.38-3.88-3.08-4.58-0.26-0.26-0.48-0.65-0.48-0.85 0-0.21-0.31-0.67-0.69-1.03-0.67-0.63-0.94-0.65-7.03-0.65-3.48 0-6.67 0.13-7.08 0.28-0.86 0.33-0.94 0.52-1.53 3.93-0.83 4.78-3.25 10.76-6.47 16.01l-1.51 2.46 0.08 8.81c0.06 6.09 0.18 8.84 0.41 8.92 0.18 0.06 1.1-0.91 2.03-2.15 0.94-1.24 1.83-2.26 1.99-2.26 0.19 0 0.29 7.9 0.29 22.03l0 22.03 0.67 0.47c0.59 0.41 1.63 0.45 8.33 0.27 4.21-0.11 8.17-0.1 8.8 0.01 1.01 0.19 1.12 0.3 0.97 0.91-0.22 0.87 0.59 3.65 1.39 4.77 0.5 0.71 0.58 1.16 0.44 2.66-0.09 0.99-0.31 1.95-0.49 2.13-0.18 0.18-0.33 0.9-0.33 1.6 0 1.23-0.48 3.03-0.74 2.77-0.07-0.07 0.06-1.2 0.3-2.52 0.23-1.31 0.43-3.22 0.44-4.25 0.02-2.92 0.58-2.79-12.02-2.79-9.76 0-10.75 0.05-11.3 0.53-0.48 0.42-0.66 1.14-0.9 3.68-0.29 3.05-1.08 5.81-2.01 7.02-0.88 1.15-1.6-0.34-2.41-4.98-0.34-1.94-0.43-6.74-0.44-24.06-0.02-34.75-0.4-55.94-1.04-58.08-0.22-0.74-0.75-2.7-1.16-4.35-0.81-3.23-2.56-8.03-3.14-8.61-0.2-0.2-0.36-0.58-0.36-0.86 0-0.28-0.21-0.68-0.47-0.89-0.26-0.22-0.73-0.9-1.05-1.52-1.19-2.33-5.22-6.84-8.53-9.53-2.07-1.69-5.74-4.23-6.11-4.23-0.1 0-0.59-0.26-1.07-0.58-0.87-0.58-0.62-0.58 32.03-0.61l32.91-0.03 0 71.33 0 71.33-18.23 0c-10.02 0-17.82-0.04-17.32-0.1zm-3.48-26.52c0.31-0.81 0.83-3.65 1.09-5.92 0.1-0.91 0.32-2.01 0.49-2.45 0.27-0.72 0.13-1.06-1.32-3.13-0.89-1.28-1.77-2.38-1.95-2.44-0.22-0.07-0.34 1.2-0.36 4.06-0.05 7.09 1.06 12.47 2.05 9.89zm9.44 23.68c0.31-0.2 1.12-0.72 1.79-1.16 0.68-0.44 1.29-0.75 1.36-0.67 0.07 0.07 0.08 0.17 0.01 0.21-0.07 0.04-0.69 0.52-1.38 1.05-0.69 0.53-1.5 0.96-1.8 0.95-0.51-0.02-0.51-0.04 0.02-0.37zm6.34-5.02c2.63-2.9 3.25-3.68 3.92-4.92 0.36-0.67 1.28-2.36 2.04-3.77 0.76-1.4 1.38-2.28 1.38-1.95 0 0.33-0.2 0.94-0.43 1.35-0.24 0.41-0.43 0.97-0.44 1.24-0.02 1.14-4.91 7.45-6.91 8.92-0.92 0.67-0.86 0.56 0.45-0.88zm7.35-11.59c0-0.13 0.14-0.45 0.3-0.69 0.25-0.39 0.29-0.38 0.3 0.06 0 0.28-0.13 0.59-0.3 0.69-0.16 0.1-0.3 0.08-0.3-0.06zm0.93-2.34c0.01-0.16 0.19-0.77 0.42-1.35 0.26-0.69 0.41-0.84 0.42-0.45 0.01 0.33-0.18 0.94-0.42 1.35-0.24 0.41-0.42 0.62-0.42 0.45zm-88.05-3.48c-0.97-0.14-2.33-0.59-3.02-0.99-1.31-0.77-3.77-3.23-3.77-3.78 0-0.18-0.27-0.69-0.61-1.15-1-1.36-1.48-3.81-1.49-7.61-0.01-5.58 0.59-7.72 3.13-11.14 1.26-1.7 1.98-2.32 4.26-3.68 3.47-2.05 6.6-3.49 13.7-6.3 6.81-2.69 8.51-3.53 10.85-5.36l1.8-1.4 0.1 5.49c0.28 15.87-2.35 24.53-9.47 31.12-3.39 3.14-6 4.46-9.63 4.84-2.97 0.31-3.43 0.31-5.86-0.05zM25.89 84.74c0-8.74 0.07-15.89 0.15-15.88 0.08 0.01 0.66 0.68 1.28 1.5 1.28 1.68 3.99 3.91 5.77 4.77 3.47 1.66 8.48 2.09 12.79 1.08 5.1-1.19 9.29-4.44 11.83-9.2l1.18-2.21 0-4.5 0-4.5-1.18-2.39c-0.75-1.53-1.8-3.04-2.92-4.2-0.96-0.99-1.75-1.87-1.75-1.96 0-0.34 3.34-1.18 6-1.49 1.57-0.19 3.75-0.49 4.86-0.67 2.32-0.38 9.45-0.16 11.94 0.37 2.35 0.5 6.33 2.51 8.08 4.08 1.43 1.29 3.62 4.43 3.62 5.2 0 0.2 0.27 0.71 0.6 1.12 0.33 0.42 0.74 1.27 0.9 1.9 0.54 2.02 0.88 6.97 0.61 8.91-0.6 4.22-3.64 8.12-7.92 10.15-2.07 0.98-7.95 2.62-12.95 3.6-2.92 0.57-5.36 1.19-7.65 1.93-13.9 4.49-14.92 4.89-21.75 8.3-5.45 2.73-7.86 4.37-11.06 7.55l-2.44 2.43 0-15.89zm3.62 11.24c0.98-0.92 3.06-2.42 4.63-3.35 1.57-0.93 3.05-1.85 3.3-2.05 0.25-0.2 1.46-0.8 2.7-1.34 1.24-0.54 2.75-1.3 3.37-1.68 0.62-0.39 1.39-0.71 1.71-0.71 0.33 0 1.67-0.47 2.98-1.05 1.31-0.58 2.55-1.05 2.74-1.05 0.2 0 0.78-0.18 1.3-0.4 0.52-0.22 1.76-0.64 2.75-0.93 0.99-0.29 2.34-0.71 3-0.92 0.66-0.22 1.67-0.49 2.25-0.6 0.58-0.12 1.52-0.45 2.1-0.73 0.58-0.29 1.73-0.62 2.55-0.74 1.89-0.27 2.27-0.58 2.05-1.67-0.22-1.09 0.98-2.3 2.56-2.56 0.6-0.1 1.9-0.43 2.89-0.74 0.99-0.31 2.94-0.85 4.33-1.2 2.98-0.75 3.85-1.16 5.44-2.6 0.88-0.8 1.18-1.3 1.18-1.98 0-0.5 0.52-2.47 1.16-4.39 0.64-1.92 1.24-4.31 1.34-5.33 0.1-1.04 0.45-2.31 0.8-2.9l0.62-1.06-0.91-1.81c-0.5-1-1.34-2.3-1.87-2.9-2.01-2.29-6.29-4.54-9.1-4.78-0.66-0.06-2.01-0.26-3-0.45-1.37-0.26-2.59-0.26-5.1 0.01-3.09 0.33-6.32 0.56-8.9 0.62-0.65 0.02-1.17 0.2-1.27 0.45-0.12 0.31-0.47 0.37-1.37 0.23-1.57-0.25-1.64 0.41-0.16 1.6 0.58 0.46 1.05 0.93 1.05 1.05 0 0.12 0.41 0.81 0.9 1.54 0.5 0.73 0.9 1.45 0.9 1.59 0 0.14 0.3 0.8 0.66 1.46 0.59 1.07 0.66 1.65 0.68 5.55 0.02 4.09-0.03 4.45-0.77 6-0.9 1.9-2.71 4.51-4.01 5.79-0.99 0.97-3.91 3.03-5.55 3.9-1.83 0.97-6.18 1.79-9.49 1.79-4.39-0.01-7.15-1.12-11.1-4.47-1.06-0.9-2.05-1.55-2.21-1.45-0.42 0.26-0.36 1.14 0.13 1.81 0.25 0.34 0.33 0.76 0.19 1.03-0.13 0.25-0.19 4.57-0.14 9.6 0.05 5.03 0.1 10.13 0.11 11.33 0.02 1.59 0.13 2.17 0.42 2.17 0.22 0 1.2-0.75 2.17-1.67zM26.06 35.55c-0.01-0.08-0.03-3.05-0.06-6.6l-0.04-6.45 7.68-0.02c8.24-0.02 8.17-0.04 5.15 1.4-2.74 1.31-6.4 4.16-9.22 7.19-1.53 1.64-2.94 3.36-3.14 3.81-0.2 0.45-0.37 0.75-0.38 0.67zm2.38-4.42c1.64-1.75 4.52-4.29 6.55-5.77 1.01-0.74 1.84-1.45 1.85-1.58 0.01-0.13-2.23-0.2-4.97-0.15l-4.99 0.08-0.08 3.6c-0.08 3.53 0.03 4.95 0.41 4.95 0.1 0 0.66-0.51 1.24-1.12z" id="path3403" inkscape:connector-curvature="0" fill="#070707"/>
    </g>
  </g>
</svg>
